<svg xmlns="http://www.w3.org/2000/svg" width="332" height="173.333" viewBox="0 0 3458 1806" shape-rendering="geometricPrecision" text-rendering="geometricPrecision" image-rendering="optimizeQuality" fill-rule="evenodd" clip-rule="evenodd"><defs><style>.fil0,.fil1,.fil2{fill:#00205b;fill-rule:nonzero}.fil0,.fil2{fill:#00558c}.fil2{fill:#fff}</style></defs><g id="Layer_x0020_1"><path class="fil0" d="M458 1806h528V0H458zM1514 1806h528V0h-528zM2569 1806h528V0h-528z"/><path class="fil1" d="M0 753h63l42 116c7 19 14 49 15 52 0-2 8-33 18-52l55-118h6l56 118c9 19 17 49 18 52 0-2 8-33 15-52l42-116h58l-105 291h-6l-65-139c-7-15-15-40-16-42 0 1-9 27-17 42l-67 139h-6L0 753z"/><path class="fil2" d="M694 1044h54V750h-54z"/><path class="fil1" d="M1207 907c-14-14-33-39-33-39s4 32 4 53v121h-53V751h6l139 137c13 13 33 39 33 39s-4-33-4-53V753h53v291h-6l-139-137z"/><path class="fil2" d="M1639 897c0-85 60-147 147-147 47 0 81 13 105 40l-40 40c-14-15-31-26-64-26-52 0-86 40-86 94s35 94 95 94c19 0 42-3 56-11v-46h-70v-52h124v128c-17 13-58 33-111 33-94 0-156-62-156-147z"/><path class="fil1" d="M2347 954l-18-44c-8-19-17-49-18-52 0 1-9 32-17 52l-18 44h72zm-38-204h5l134 294h-63l-16-39h-113l-16 39h-58l128-294z"/><path class="fil2" d="M2792 803h-84v-53h227v53h-83v241h-60V803z"/><path class="fil1" d="M3264 750h181v53h-125v68h110v51h-110v69h131v53h-187V750z"/></g></svg>